<?xml version="1.0" standalone="no"?>
<!DOCTYPE svg PUBLIC "-//W3C//DTD SVG 20010904//EN"
 "http://www.w3.org/TR/2001/REC-SVG-20010904/DTD/svg10.dtd">
<svg version="1.0" xmlns="http://www.w3.org/2000/svg"
 width="16.000000pt" height="16.000000pt" viewBox="0 0 16.000000 16.000000"
 preserveAspectRatio="xMidYMid meet">
<metadata>
Created by potrace 1.11, written by Peter Selinger 2001-2013
</metadata>
<g transform="translate(0.000000,16.000000) scale(0.006154,-0.006154)"
fill="#000000" stroke="none">
<path d="M1354 1513 c1 -351 -3 -662 -7 -692 -19 -130 -98 -187 -232 -167 -95
15 -132 86 -138 261 l-2 80 -114 3 c-66 1 -117 -1 -120 -7 -7 -11 -5 -132 3
-199 22 -180 117 -300 272 -343 83 -23 242 -20 319 6 138 46 218 159 251 355
4 25 8 336 8 693 l1 647 -120 0 -121 0 0 -637z"/>
</g>
</svg>
